{"asset":{"version":"2.0","generator":"babylon.js glTF exporter for maya 2018 v1.2.26"},"scene":0,"scenes":[{"nodes":[0,1],"extensions":{}}],"nodes":[{"mesh":0,"translation":[0.0,0.0,0.0],"rotation":[0.0,0.0,0.0,1.0],"scale":[1.0,1.0,1.0],"name":"pCube1"},{"translation":[0.0,0.0,0.0],"rotation":[0.0,0.0,0.0,1.0],"scale":[1.0,1.0,1.0],"name":"Default light"}],"meshes":[{"primitives":[{"attributes":{"POSITION":1,"NORMAL":2,"TANGENT":3,"TEXCOORD_0":4},"indices":0,"mode":4,"material":0}],"name":"pCube1"}],"accessors":[{"bufferView":0,"componentType":5123,"count":84,"type":"SCALAR","name":"accessorIndices"},{"bufferView":1,"componentType":5126,"count":49,"max":[5.21602535,2.91761947,0.5],"min":[-1.7681632,-0.5,-1.55432034],"type":"VEC3","name":"accessorPositions"},{"bufferView":1,"byteOffset":588,"componentType":5126,"count":49,"type":"VEC3","name":"accessorNormals"},{"bufferView":2,"componentType":5126,"count":49,"type":"VEC4","name":"accessorTangents"},{"bufferView":3,"componentType":5126,"count":49,"type":"VEC2","name":"accessorUVs"},{"bufferView":4,"componentType":5126,"count":81,"max":[8.291667],"min":[0.0],"type":"SCALAR","name":"accessorAnimationInput"},{"bufferView":5,"componentType":5126,"count":81,"type":"VEC4","name":"accessorAnimationRotations"}],"bufferViews":[{"buffer":0,"byteLength":168,"name":"bufferViewScalar"},{"buffer":0,"byteOffset":168,"byteLength":1176,"byteStride":12,"name":"bufferViewFloatVec3"},{"buffer":0,"byteOffset":1344,"byteLength":784,"byteStride":16,"name":"bufferViewFloatVec4"},{"buffer":0,"byteOffset":2128,"byteLength":392,"byteStride":8,"name":"bufferViewFloatVec2"},{"buffer":0,"byteOffset":2520,"byteLength":324,"name":"bufferViewAnimationFloatScalar"},{"buffer":0,"byteOffset":2844,"byteLength":1296,"name":"bufferViewAnimationFloatVec4"}],"buffers":[{"uri":"anim_test_02.bin","byteLength":4140}],"materials":[{"pbrMetallicRoughness":{"baseColorFactor":[0.5208334,0.5208334,0.5208334,1.0],"metallicFactor":0.0,"roughnessFactor":0.9},"emissiveFactor":[0.0,0.0,0.0],"alphaMode":"OPAQUE","name":"lambert1"}],"animations":[{"channels":[{"sampler":0,"target":{"node":0,"path":"rotation"}}],"samplers":[{"input":5,"interpolation":"LINEAR","output":6}],"name":"All Animations"}]}